<svg xmlns="http://www.w3.org/2000/svg" xmlns:xlink="http://www.w3.org/1999/xlink" viewBox="0 0 480 480" width="480px" height="480px"><g id="surface133938842"><path style=" stroke:none;fill-rule:nonzero;fill:rgb(100%,100%,100%);fill-opacity:1;" d="M 217.921875 276.738281 C 218.179688 276.78125 218.238281 276.78125 218.5 276.820312 C 222.820312 277.398438 227.078125 278.179688 230.320312 279.640625 C 233.339844 280.980469 235.101562 282.660156 236.71875 285.660156 C 239.179688 290.21875 239.339844 296.578125 237.121094 301.421875 C 235.460938 305.019531 231.839844 308.019531 228.519531 309.621094 C 225.078125 311.300781 221.679688 312.078125 217.78125 312.539062 C 210.980469 313.28125 203.621094 311.878906 197.480469 308.921875 C 193.859375 307.140625 189.421875 304.101562 187.199219 300.179688 C 185.558594 297.300781 185.621094 293.558594 187.601562 290.820312 C 190.78125 286.460938 197.601562 285.5 202.738281 285.679688 C 206.660156 285.839844 213.699219 287.039062 217.421875 288.359375 C 218.460938 288.738281 222.261719 290.21875 222.921875 290.898438 C 223.378906 291.378906 223.679688 292.058594 223.480469 292.699219 C 222.640625 295.300781 216.320312 296.660156 214.5 296.941406 C 209.621094 297.679688 207.078125 295.839844 201.539062 293.640625 C 200.160156 293.101562 198.320312 292.5 196.921875 292.378906 C 194.398438 292.140625 191.359375 292.839844 190.878906 295.601562 C 190.640625 297.019531 192.300781 298.339844 193.578125 298.898438 C 196.558594 300.179688 198.980469 300.640625 201.898438 300.679688 C 210.558594 300.820312 220.28125 299.398438 227.359375 294.378906 C 228.320312 293.679688 229.28125 292.679688 229.300781 291.398438 C 229.339844 288.820312 224.820312 287.238281 224.820312 287.238281 C 220.058594 285.261719 211.238281 284.28125 206.699219 283.921875 C 201.941406 283.5 194.441406 282.898438 192.640625 282.621094 C 190.78125 282.359375 188.78125 281.980469 187.160156 281.261719 C 185.539062 280.539062 183.980469 278.898438 183.5 277.101562 C 182.679688 273.839844 183.71875 269.859375 185.539062 267.261719 C 190.28125 260.460938 201.359375 257.878906 209.621094 256.859375 C 217.640625 255.859375 230.578125 255.878906 238.460938 260.058594 C 239.679688 260.71875 240.300781 261.320312 240.039062 262.621094 C 239.519531 265.058594 237.699219 266.621094 235.480469 267.320312 C 233.140625 268.058594 228.320312 268.359375 226.21875 268.480469 C 216.738281 269.019531 205.261719 268.738281 196.238281 271.199219 C 195.539062 271.398438 194.300781 271.738281 193.921875 272.179688 C 192.5 273.71875 196.539062 274.160156 197.421875 274.320312 C 197.679688 274.378906 197.71875 274.398438 198 274.421875 L 217.921875 276.738281 M 161.480469 234.441406 C 161.480469 234.441406 163.019531 232.121094 164.320312 230.359375 C 166.679688 227.160156 170.941406 222.71875 174.140625 219.980469 C 175.121094 219.140625 176.28125 218.199219 176.28125 218.199219 C 176.28125 218.199219 174.460938 218.378906 173.441406 218.601562 C 171 219.078125 167.441406 221.441406 165.660156 222.980469 C 162.71875 225.5 159.480469 229.601562 160.941406 233.238281 C 161.140625 233.761719 161.480469 234.441406 161.480469 234.441406 M 177.839844 238.820312 C 182.480469 238.5 186.839844 237.160156 190.898438 234.921875 C 194.878906 232.699219 200.71875 228.359375 200.121094 223.261719 C 199.941406 221.601562 198.859375 220.359375 197.5 219.78125 C 195.71875 219.019531 194.800781 219.140625 192.539062 219.800781 C 190.898438 220.28125 190.160156 220.578125 188.601562 221.460938 C 184.039062 224.121094 177.578125 229.78125 174.058594 234.300781 C 173.238281 235.359375 172.421875 236.558594 171.78125 237.378906 C 171.378906 237.878906 171.058594 238.339844 171.101562 238.480469 C 171.21875 239 176.019531 238.941406 177.839844 238.820312 M 166 247.519531 C 165.519531 248.019531 165.019531 249.261719 164.480469 250.140625 C 164.199219 250.621094 163.679688 251.21875 163.339844 251.460938 C 162.121094 252.339844 161.101562 252.398438 159.941406 251.359375 C 158.300781 249.921875 157.359375 247.660156 157.28125 245.480469 C 157.238281 244.519531 157.398438 243.480469 157.21875 242.679688 C 156.921875 241.320312 155.558594 239.941406 154.839844 238.640625 C 153.980469 237.121094 153.28125 234.460938 153.199219 232.738281 C 152.898438 227.378906 155.71875 222.460938 159.398438 218.558594 C 163.101562 214.621094 167.921875 211.359375 173.179688 209.140625 C 178.140625 207.039062 185.421875 205.621094 190.878906 207.519531 C 192.660156 208.121094 195.121094 209.640625 196.378906 211.21875 C 196.640625 211.539062 196.859375 211.898438 197.121094 212.078125 C 197.359375 212.238281 198 212.300781 198.5 212.378906 C 200.238281 212.679688 202.738281 214 203.761719 214.878906 C 205.820312 216.660156 206.941406 218.339844 207.460938 220.800781 C 208.5 225.738281 205.660156 231.179688 202.398438 234.480469 C 196.839844 240.160156 191.359375 244.160156 184.238281 246.941406 C 181.121094 248.160156 176.261719 249.300781 172.71875 248.980469 C 171.621094 248.878906 170.480469 248.601562 169.421875 248.519531 C 168.878906 248.480469 166.878906 247.960938 166.660156 247.820312 C 166.398438 247.621094 166.058594 247.441406 166 247.519531 M 172.339844 258.480469 C 172.558594 258.519531 172.898438 258.621094 173.179688 258.71875 C 175.679688 259.660156 176.699219 261.980469 177.320312 264.5 C 178.738281 270.378906 179.339844 283.398438 179.578125 288.5 C 179.761719 292.339844 179.839844 296.101562 180 299.878906 C 180.140625 303.078125 180.398438 307.339844 179.71875 310.339844 C 179.480469 311.421875 178.761719 312.679688 177.71875 313.320312 C 176.539062 314.078125 173.839844 314.140625 172.359375 313.820312 C 168.71875 313.058594 167.519531 310.71875 167 307.121094 C 165.761719 298.5 166.359375 281.601562 167.078125 274.480469 C 167.320312 272.121094 168.199219 264.578125 169.441406 261.421875 C 169.898438 260.339844 170.78125 258.179688 172.339844 258.480469 M 61.339844 272.820312 C 61.339844 272.820312 55.898438 273.199219 52.179688 273.621094 C 47.421875 274.140625 38.480469 275.679688 33.339844 277.519531 C 31.800781 278.078125 28.660156 279.378906 28.378906 280.980469 C 28.101562 282.621094 29.121094 283.921875 30.261719 285.261719 C 30.921875 286.039062 34.640625 289.621094 35.679688 290.480469 C 40.058594 294.140625 48.941406 299.78125 55.480469 302.5 C 57.71875 303.421875 61.441406 304.761719 61.441406 304.761719 C 61.441406 304.761719 61.160156 294.179688 61.21875 283.761719 C 61.21875 278.261719 61.339844 272.820312 61.339844 272.820312 M 160.921875 277.019531 C 161.238281 279.859375 160.5 285.238281 160.378906 285.941406 C 160.140625 287.578125 158.921875 291.339844 158.71875 291.800781 C 157.71875 294.101562 156.738281 295.960938 155.699219 297.839844 C 153.921875 301.039062 149.679688 306.121094 147.179688 308.300781 C 137.839844 316.378906 123.359375 320.980469 110.941406 322.5 C 102.519531 323.519531 92.839844 323.359375 83.921875 321.71875 C 80.839844 321.160156 76.28125 320.101562 76.28125 320.101562 C 76.28125 320.101562 76.300781 321.921875 76.140625 323.21875 C 76.058594 323.800781 75.621094 325.359375 75.378906 325.859375 C 74.738281 327.199219 73.660156 327.898438 72.121094 328.179688 C 70.238281 328.519531 68.261719 328.640625 66.539062 327.898438 C 63.699219 326.699219 62.679688 324.058594 62.179688 321 C 61.78125 318.558594 61.359375 314.300781 61.359375 314.300781 C 61.359375 314.300781 59.238281 313.300781 57.460938 312.421875 C 52.019531 309.738281 46.859375 306.5 42.339844 303.160156 C 41.078125 302.21875 35.71875 297.71875 34.519531 296.601562 C 31.199219 293.441406 28.199219 290.300781 25.921875 286.261719 C 24.140625 283.101562 23.640625 280.320312 24.980469 276.980469 C 26.839844 272.320312 33.5 268.820312 38.078125 266.820312 C 41.441406 265.339844 51.859375 261.941406 56.179688 261.300781 C 58.21875 261 61.398438 260.441406 61.601562 260.320312 C 61.679688 260.261719 61.738281 260.199219 61.800781 260.140625 C 61.878906 260 62.058594 255.398438 62.019531 253.71875 C 61.980469 252.058594 63.238281 241.179688 63.660156 238.878906 C 63.878906 237.640625 64.820312 232.839844 65.78125 231.578125 C 66.398438 230.738281 67.519531 230.800781 68.421875 231.359375 C 73.378906 234.441406 74.898438 245.160156 75.261719 250.601562 C 75.480469 253.921875 75.601562 258.921875 75.601562 258.921875 C 75.601562 258.921875 81.300781 258.761719 84.800781 258.859375 C 88.199219 258.941406 91.960938 259.480469 95.480469 260.039062 C 100 260.761719 108.820312 262.679688 113.878906 265.261719 C 118.039062 267.378906 121.941406 270.921875 123.199219 274.699219 C 124.378906 278.160156 124.199219 280.539062 122.421875 283.660156 C 120.421875 287.179688 116.621094 289.800781 112.761719 290 C 111.621094 290.058594 107.300781 289.5 105.960938 288.460938 C 105.441406 288.058594 105.460938 287.320312 105.839844 286.800781 C 105.980469 286.601562 108 285.539062 109.199219 284.898438 C 109.800781 284.578125 110.300781 284.21875 110.761719 283.800781 C 111.738281 282.921875 112.640625 281.960938 112.539062 280.839844 C 112.398438 279.378906 110.859375 278.480469 109.378906 277.898438 C 102.480469 275.160156 88.679688 272.878906 82.019531 272.480469 C 79.421875 272.320312 75.699219 272.199219 75.699219 272.199219 L 76.480469 308.980469 C 76.480469 308.980469 79.539062 309.558594 81.960938 309.960938 C 83.339844 310.179688 89.21875 310.699219 90.78125 310.738281 C 102.660156 311.058594 115.941406 309.980469 126.839844 304.839844 C 131.660156 302.601562 136.039062 299.800781 139.378906 296 C 143.761719 290.980469 146.058594 284.101562 145.460938 276.898438 C 144.800781 269.058594 139.28125 259.738281 134.859375 254.058594 C 123.199219 239.078125 103.21875 226.738281 85.660156 219.519531 C 67.71875 212.140625 49.980469 207.898438 30.941406 207.199219 C 26.039062 207.019531 15.320312 207.261719 9.921875 208.761719 C 9.140625 208.980469 8.359375 209.238281 7.660156 209.398438 C 7.101562 209.539062 6.199219 209.917969 5.960938 210.121094 C 5.820312 210.21875 5.679688 210.378906 5.679688 210.378906 C 5.679688 210.378906 6.019531 210.558594 6.339844 210.699219 C 6.921875 210.960938 9.320312 211.101562 10.578125 211.320312 C 11.699219 211.539062 12.859375 212.121094 13.320312 212.941406 C 13.761719 213.71875 13.820312 214.339844 13.28125 214.980469 C 12.058594 216.480469 7.441406 216.21875 5.398438 215.898438 C 3.28125 215.558594 0.660156 214.921875 0.179688 213.078125 C -0.378906 210.921875 0.640625 208.800781 1.761719 206.820312 C 4 202.898438 7.199219 200.859375 11.878906 199.578125 C 18.539062 197.738281 26.921875 196.480469 33.21875 196.238281 C 47.441406 195.699219 60.898438 198.179688 74.660156 202.378906 C 82.539062 204.761719 92.859375 208.761719 100.421875 212.398438 C 105.839844 215.019531 114.378906 219.820312 119.179688 222.960938 C 120.699219 223.960938 129.539062 230.460938 130.921875 231.621094 C 133.78125 233.960938 137.539062 237.339844 140.261719 240.039062 C 145.519531 245.261719 152.058594 253.238281 155.238281 259.578125 C 156 261.101562 156.601562 262.601562 157.578125 264.359375 C 157.921875 264.960938 159.378906 268.558594 159.621094 269.621094 C 159.859375 270.660156 160.199219 272.160156 160.261719 272.21875 C 160.300781 272.738281 160.960938 275.820312 160.921875 277.019531 M 339.640625 268.878906 C 332.980469 270.421875 315.480469 271.261719 315.480469 271.261719 L 313.28125 278.179688 C 313.28125 278.179688 322.019531 277.441406 328.398438 278.101562 C 328.398438 278.101562 330.460938 277.859375 330.699219 280.441406 C 330.78125 282.839844 330.5 285.421875 330.5 285.421875 C 330.5 285.421875 330.359375 286.980469 328.160156 287.378906 C 325.761719 287.78125 309.300781 288.421875 309.300781 288.421875 L 306.640625 297.441406 C 306.640625 297.441406 305.640625 299.519531 307.859375 298.921875 C 309.921875 298.359375 327.160156 295.140625 329.421875 295.601562 C 331.820312 296.199219 334.5 299.398438 333.71875 302.339844 C 332.800781 305.960938 315.601562 316.941406 305.121094 316.179688 C 305.121094 316.179688 299.621094 316.539062 294.960938 309.101562 C 290.621094 302.019531 296.601562 288.601562 296.601562 288.601562 C 296.601562 288.601562 293.859375 282.339844 295.839844 280.21875 C 295.839844 280.21875 297.019531 279.140625 300.460938 278.898438 L 304.679688 270.179688 C 304.679688 270.179688 299.878906 270.519531 297.019531 266.980469 C 294.359375 263.621094 294.140625 262.078125 296.179688 261.160156 C 298.359375 260.078125 318.378906 256.441406 332.140625 256.898438 C 332.140625 256.898438 336.921875 256.441406 341.078125 264.738281 C 341.039062 264.71875 343.039062 268.078125 339.640625 268.878906 M 287.839844 302.441406 C 286.078125 306.601562 281.421875 311.019531 275.621094 308.261719 C 269.898438 305.5 260.800781 286.859375 260.800781 286.859375 C 260.800781 286.859375 257.339844 279.921875 256.679688 280.101562 C 256.679688 280.101562 255.941406 278.738281 255.480469 286.339844 C 255 293.898438 255.578125 308.640625 252.558594 310.960938 C 249.699219 313.28125 246.238281 312.359375 244.441406 309.640625 C 242.800781 306.960938 242.140625 300.601562 243.019531 289.421875 C 244.058594 278.21875 246.660156 266.300781 250 262.601562 C 253.320312 258.921875 255.980469 261.601562 257.019531 262.558594 C 257.019531 262.558594 261.460938 266.578125 268.78125 278.398438 L 270.078125 280.578125 C 270.078125 280.578125 276.738281 291.738281 277.421875 291.71875 C 277.421875 291.71875 277.960938 292.238281 278.441406 291.859375 C 279.140625 291.660156 278.859375 288.078125 278.859375 288.078125 C 278.859375 288.078125 277.480469 275.921875 271.398438 255.320312 C 271.398438 255.320312 270.480469 252.761719 271.101562 250.339844 C 271.71875 247.898438 274.160156 249.039062 274.160156 249.039062 C 274.160156 249.039062 283.558594 253.78125 288.140625 269.078125 C 292.679688 284.441406 289.640625 298.261719 287.839844 302.441406 M 389.101562 293.28125 C 384.820312 300.761719 372.71875 316.398438 356.660156 312.699219 C 351.359375 325.558594 346.898438 338.578125 344.339844 358.058594 C 344.339844 358.058594 343.78125 361.839844 340.640625 360.539062 C 337.519531 359.441406 332.378906 354.261719 331.339844 347.101562 C 330.21875 337.679688 334.421875 321.761719 342.980469 303.5 C 340.480469 299.441406 338.78125 293.640625 340.238281 285.359375 C 340.238281 285.359375 342.398438 270.019531 357.800781 256.179688 C 357.800781 256.179688 359.640625 254.578125 360.71875 255.078125 C 361.898438 255.578125 361.359375 260.558594 360.421875 263 C 359.441406 265.421875 352.578125 277.300781 352.578125 277.300781 C 352.578125 277.300781 348.300781 285.320312 349.5 291.660156 C 357.578125 279.21875 375.960938 254.160156 387.359375 262.058594 C 391.179688 264.800781 392.960938 270.761719 392.960938 277.179688 C 392.960938 282.78125 391.621094 288.78125 389.101562 293.28125 M 385.78125 273.578125 C 385.78125 273.578125 385.140625 268.640625 380.320312 274.078125 C 376.160156 278.679688 368.660156 287.28125 362.640625 298.980469 C 368.980469 298.261719 375.078125 294.839844 376.921875 293.078125 C 379.898438 290.421875 386.898438 283.199219 385.78125 273.578125 M 477.601562 272.460938 L 448.160156 272.460938 C 447.578125 262.460938 446.359375 252.699219 444.460938 242.660156 C 444.261719 241.621094 443.359375 240.859375 442.300781 240.859375 L 435.519531 240.859375 C 434.921875 240.859375 434.359375 241.121094 433.980469 241.578125 C 433.601562 242.058594 433.441406 242.640625 433.558594 243.238281 C 435.480469 252.960938 436.71875 262.519531 437.320312 272.460938 L 409 272.460938 C 407.679688 272.460938 406.601562 273.519531 406.601562 274.839844 L 406.601562 280.960938 C 406.601562 282.28125 407.679688 283.359375 409 283.359375 L 437.738281 283.359375 C 437.761719 284.878906 437.78125 286.21875 437.78125 287.5 C 437.78125 296.320312 437.398438 303.601562 436.5 311.800781 C 436.421875 312.441406 436.640625 313.058594 437.058594 313.539062 C 437.480469 314 438.078125 314.28125 438.699219 314.28125 L 445 314.28125 C 446.21875 314.28125 447.238281 313.359375 447.378906 312.140625 C 448.238281 303.878906 448.601562 296.519531 448.601562 287.519531 C 448.601562 286.261719 448.578125 284.898438 448.558594 283.378906 L 477.601562 283.378906 C 478.921875 283.378906 480 282.300781 480 280.980469 L 480 274.859375 C 480 273.539062 478.921875 272.460938 477.601562 272.460938 M 83.859375 190.421875 C 83.441406 191.039062 83.339844 191.800781 83.578125 192.5 C 83.839844 193.21875 84.378906 193.761719 85.078125 194 L 90.359375 195.78125 C 90.679688 195.878906 91 195.941406 91.300781 195.941406 C 92.28125 195.941406 93.199219 195.460938 93.738281 194.640625 C 111.039062 169.238281 134.441406 148.078125 161.421875 133.480469 C 189.28125 118.398438 220.839844 110.421875 252.71875 110.421875 C 291.21875 110.421875 328.339844 121.78125 360.121094 143.261719 C 391.121094 164.21875 415.199219 193.441406 429.738281 227.78125 C 430.179688 228.800781 431.179688 229.480469 432.300781 229.480469 L 438.601562 229.480469 C 439.320312 229.480469 440 229.121094 440.421875 228.5 C 440.839844 227.898438 440.921875 227.121094 440.640625 226.441406 C 425.640625 189.5 400.261719 158.019531 367.261719 135.398438 C 333.480469 112.238281 293.859375 100 252.71875 100 C 184.679688 100 121.558594 133.800781 83.859375 190.421875 "></path></g></svg>