<svg xmlns="http://www.w3.org/2000/svg" xmlns:xlink="http://www.w3.org/1999/xlink" viewBox="0 0 24 24" width="24px" height="24px"><g id="surface131530792"><path style=" stroke:none;fill-rule:nonzero;fill:rgb(100%,100%,100%);fill-opacity:1;" d="M 10.894531 13.835938 C 10.910156 13.839844 10.910156 13.839844 10.925781 13.839844 C 11.140625 13.871094 11.355469 13.910156 11.515625 13.980469 C 11.667969 14.050781 11.753906 14.132812 11.835938 14.28125 C 11.960938 14.511719 11.96875 14.828125 11.855469 15.070312 C 11.773438 15.25 11.59375 15.402344 11.425781 15.480469 C 11.253906 15.566406 11.085938 15.605469 10.890625 15.628906 C 10.550781 15.664062 10.179688 15.59375 9.875 15.445312 C 9.691406 15.355469 9.472656 15.203125 9.359375 15.007812 C 9.277344 14.863281 9.28125 14.679688 9.378906 14.539062 C 9.539062 14.324219 9.878906 14.273438 10.136719 14.285156 C 10.332031 14.292969 10.683594 14.351562 10.871094 14.417969 C 10.921875 14.4375 11.113281 14.511719 11.144531 14.546875 C 11.167969 14.570312 11.183594 14.601562 11.175781 14.636719 C 11.132812 14.765625 10.816406 14.832031 10.726562 14.847656 C 10.480469 14.882812 10.355469 14.792969 10.078125 14.683594 C 10.007812 14.65625 9.914062 14.625 9.847656 14.617188 C 9.71875 14.605469 9.566406 14.640625 9.542969 14.78125 C 9.53125 14.851562 9.613281 14.917969 9.679688 14.945312 C 9.828125 15.007812 9.949219 15.03125 10.09375 15.035156 C 10.527344 15.039062 11.015625 14.96875 11.367188 14.71875 C 11.414062 14.683594 11.464844 14.632812 11.464844 14.570312 C 11.46875 14.441406 11.242188 14.363281 11.242188 14.363281 C 11.003906 14.261719 10.5625 14.214844 10.335938 14.195312 C 10.097656 14.175781 9.722656 14.144531 9.632812 14.132812 C 9.539062 14.117188 9.4375 14.097656 9.359375 14.0625 C 9.277344 14.027344 9.199219 13.945312 9.175781 13.855469 C 9.132812 13.691406 9.1875 13.492188 9.277344 13.363281 C 9.515625 13.023438 10.066406 12.894531 10.480469 12.84375 C 10.882812 12.792969 11.527344 12.792969 11.921875 13.003906 C 11.984375 13.035156 12.015625 13.066406 12.003906 13.132812 C 11.976562 13.253906 11.886719 13.332031 11.773438 13.367188 C 11.65625 13.402344 11.414062 13.417969 11.3125 13.425781 C 10.835938 13.449219 10.261719 13.4375 9.8125 13.558594 C 9.777344 13.570312 9.714844 13.585938 9.695312 13.609375 C 9.625 13.6875 9.828125 13.707031 9.871094 13.714844 C 9.882812 13.71875 9.886719 13.71875 9.898438 13.722656 L 10.894531 13.835938 M 8.074219 11.722656 C 8.074219 11.722656 8.152344 11.605469 8.214844 11.519531 C 8.335938 11.359375 8.546875 11.136719 8.707031 11 C 8.757812 10.957031 8.8125 10.910156 8.8125 10.910156 C 8.8125 10.910156 8.722656 10.917969 8.671875 10.929688 C 8.550781 10.953125 8.371094 11.070312 8.28125 11.148438 C 8.136719 11.273438 7.972656 11.480469 8.046875 11.660156 C 8.058594 11.6875 8.074219 11.722656 8.074219 11.722656 M 8.890625 11.941406 C 9.125 11.925781 9.34375 11.859375 9.546875 11.746094 C 9.742188 11.636719 10.035156 11.417969 10.007812 11.164062 C 9.996094 11.078125 9.941406 11.019531 9.875 10.988281 C 9.785156 10.949219 9.738281 10.957031 9.628906 10.988281 C 9.546875 11.015625 9.507812 11.027344 9.429688 11.074219 C 9.203125 11.207031 8.878906 11.488281 8.703125 11.714844 C 8.660156 11.769531 8.621094 11.828125 8.589844 11.867188 C 8.570312 11.894531 8.554688 11.917969 8.554688 11.925781 C 8.5625 11.949219 8.800781 11.945312 8.890625 11.941406 M 8.300781 12.375 C 8.277344 12.402344 8.25 12.464844 8.222656 12.507812 C 8.210938 12.53125 8.183594 12.5625 8.167969 12.574219 C 8.105469 12.617188 8.054688 12.621094 7.996094 12.566406 C 7.914062 12.496094 7.867188 12.382812 7.863281 12.273438 C 7.863281 12.226562 7.871094 12.175781 7.859375 12.132812 C 7.847656 12.066406 7.777344 11.996094 7.742188 11.933594 C 7.699219 11.855469 7.664062 11.722656 7.660156 11.636719 C 7.644531 11.367188 7.785156 11.121094 7.96875 10.929688 C 8.15625 10.730469 8.394531 10.566406 8.660156 10.457031 C 8.90625 10.351562 9.269531 10.28125 9.542969 10.375 C 9.632812 10.40625 9.757812 10.480469 9.820312 10.5625 C 9.832031 10.578125 9.84375 10.59375 9.855469 10.605469 C 9.867188 10.613281 9.898438 10.613281 9.925781 10.617188 C 10.011719 10.632812 10.136719 10.699219 10.1875 10.742188 C 10.289062 10.832031 10.347656 10.917969 10.371094 11.039062 C 10.425781 11.285156 10.28125 11.558594 10.121094 11.722656 C 9.84375 12.007812 9.566406 12.207031 9.210938 12.347656 C 9.054688 12.40625 8.8125 12.464844 8.636719 12.449219 C 8.582031 12.445312 8.523438 12.429688 8.472656 12.425781 C 8.445312 12.425781 8.34375 12.398438 8.332031 12.390625 C 8.320312 12.382812 8.304688 12.371094 8.300781 12.375 M 8.617188 12.925781 C 8.628906 12.925781 8.644531 12.929688 8.660156 12.9375 C 8.785156 12.984375 8.835938 13.097656 8.867188 13.226562 C 8.9375 13.519531 8.96875 14.171875 8.980469 14.425781 C 8.988281 14.617188 8.992188 14.804688 9 14.992188 C 9.007812 15.152344 9.019531 15.367188 8.984375 15.515625 C 8.972656 15.570312 8.9375 15.632812 8.886719 15.664062 C 8.828125 15.703125 8.691406 15.707031 8.617188 15.691406 C 8.4375 15.652344 8.375 15.535156 8.351562 15.355469 C 8.289062 14.925781 8.316406 14.078125 8.355469 13.722656 C 8.367188 13.605469 8.410156 13.230469 8.472656 13.070312 C 8.496094 13.015625 8.539062 12.910156 8.617188 12.925781 M 3.066406 13.640625 C 3.066406 13.640625 2.796875 13.660156 2.609375 13.679688 C 2.371094 13.707031 1.925781 13.785156 1.667969 13.875 C 1.589844 13.902344 1.433594 13.96875 1.417969 14.050781 C 1.40625 14.132812 1.457031 14.195312 1.511719 14.261719 C 1.546875 14.300781 1.730469 14.480469 1.785156 14.523438 C 2.003906 14.707031 2.445312 14.988281 2.773438 15.125 C 2.886719 15.171875 3.070312 15.238281 3.070312 15.238281 C 3.070312 15.238281 3.058594 14.710938 3.0625 14.1875 C 3.0625 13.914062 3.066406 13.640625 3.066406 13.640625 M 8.046875 13.851562 C 8.0625 13.992188 8.023438 14.261719 8.019531 14.296875 C 8.007812 14.378906 7.945312 14.566406 7.9375 14.589844 C 7.886719 14.703125 7.835938 14.796875 7.785156 14.890625 C 7.695312 15.050781 7.484375 15.304688 7.359375 15.414062 C 6.890625 15.820312 6.167969 16.050781 5.546875 16.125 C 5.125 16.175781 4.640625 16.167969 4.195312 16.085938 C 4.042969 16.058594 3.8125 16.003906 3.8125 16.003906 C 3.8125 16.003906 3.816406 16.097656 3.808594 16.160156 C 3.804688 16.191406 3.78125 16.269531 3.769531 16.292969 C 3.738281 16.359375 3.683594 16.394531 3.605469 16.410156 C 3.511719 16.425781 3.414062 16.433594 3.328125 16.394531 C 3.183594 16.335938 3.132812 16.203125 3.109375 16.050781 C 3.089844 15.929688 3.066406 15.714844 3.066406 15.714844 C 3.066406 15.714844 2.960938 15.664062 2.871094 15.621094 C 2.601562 15.488281 2.34375 15.324219 2.117188 15.15625 C 2.054688 15.109375 1.785156 14.886719 1.726562 14.828125 C 1.558594 14.671875 1.410156 14.515625 1.296875 14.3125 C 1.207031 14.15625 1.183594 14.015625 1.25 13.847656 C 1.34375 13.617188 1.675781 13.441406 1.902344 13.339844 C 2.070312 13.265625 2.59375 13.097656 2.808594 13.066406 C 2.910156 13.050781 3.070312 13.023438 3.078125 13.015625 C 3.085938 13.011719 3.085938 13.011719 3.089844 13.007812 C 3.09375 13 3.101562 12.769531 3.101562 12.6875 C 3.097656 12.601562 3.160156 12.058594 3.183594 11.945312 C 3.195312 11.882812 3.242188 11.640625 3.289062 11.578125 C 3.320312 11.535156 3.375 11.539062 3.421875 11.566406 C 3.667969 11.722656 3.746094 12.257812 3.761719 12.53125 C 3.773438 12.695312 3.78125 12.945312 3.78125 12.945312 C 3.78125 12.945312 4.066406 12.9375 4.238281 12.941406 C 4.410156 12.945312 4.597656 12.972656 4.773438 13.003906 C 5 13.039062 5.441406 13.132812 5.695312 13.261719 C 5.902344 13.367188 6.097656 13.546875 6.160156 13.734375 C 6.21875 13.90625 6.210938 14.027344 6.121094 14.183594 C 6.019531 14.359375 5.832031 14.488281 5.636719 14.5 C 5.582031 14.503906 5.363281 14.476562 5.296875 14.421875 C 5.273438 14.402344 5.273438 14.367188 5.292969 14.339844 C 5.300781 14.328125 5.398438 14.277344 5.460938 14.246094 C 5.488281 14.230469 5.515625 14.210938 5.539062 14.191406 C 5.585938 14.144531 5.632812 14.097656 5.628906 14.042969 C 5.621094 13.96875 5.542969 13.925781 5.46875 13.894531 C 5.125 13.757812 4.433594 13.644531 4.101562 13.625 C 3.972656 13.617188 3.785156 13.609375 3.785156 13.609375 L 3.824219 15.449219 C 3.824219 15.449219 3.976562 15.476562 4.097656 15.496094 C 4.167969 15.507812 4.460938 15.535156 4.539062 15.535156 C 5.132812 15.554688 5.796875 15.5 6.34375 15.242188 C 6.582031 15.128906 6.800781 14.988281 6.96875 14.800781 C 7.1875 14.550781 7.304688 14.203125 7.273438 13.84375 C 7.238281 13.453125 6.964844 12.988281 6.742188 12.703125 C 6.160156 11.953125 5.160156 11.335938 4.28125 10.976562 C 3.386719 10.605469 2.5 10.394531 1.546875 10.359375 C 1.300781 10.351562 0.765625 10.363281 0.496094 10.4375 C 0.457031 10.449219 0.417969 10.460938 0.382812 10.46875 C 0.355469 10.476562 0.308594 10.496094 0.296875 10.507812 C 0.289062 10.511719 0.285156 10.519531 0.285156 10.519531 C 0.285156 10.519531 0.300781 10.527344 0.316406 10.535156 C 0.347656 10.546875 0.464844 10.554688 0.527344 10.566406 C 0.585938 10.578125 0.644531 10.605469 0.664062 10.648438 C 0.6875 10.6875 0.691406 10.71875 0.664062 10.75 C 0.601562 10.824219 0.371094 10.8125 0.269531 10.796875 C 0.164062 10.777344 0.03125 10.746094 0.0078125 10.652344 C -0.0195312 10.546875 0.03125 10.441406 0.0898438 10.339844 C 0.199219 10.144531 0.359375 10.042969 0.59375 9.980469 C 0.925781 9.886719 1.347656 9.824219 1.660156 9.8125 C 2.371094 9.785156 3.046875 9.910156 3.734375 10.117188 C 4.128906 10.238281 4.644531 10.4375 5.019531 10.621094 C 5.292969 10.75 5.71875 10.992188 5.960938 11.148438 C 6.035156 11.199219 6.476562 11.523438 6.546875 11.582031 C 6.6875 11.699219 6.878906 11.867188 7.011719 12.003906 C 7.277344 12.261719 7.601562 12.660156 7.761719 12.980469 C 7.800781 13.054688 7.828125 13.128906 7.878906 13.21875 C 7.894531 13.246094 7.96875 13.429688 7.980469 13.480469 C 7.992188 13.53125 8.011719 13.609375 8.011719 13.609375 C 8.015625 13.636719 8.046875 13.789062 8.046875 13.851562 M 16.980469 13.445312 C 16.648438 13.519531 15.773438 13.5625 15.773438 13.5625 L 15.664062 13.910156 C 15.664062 13.910156 16.101562 13.871094 16.421875 13.90625 C 16.421875 13.90625 16.523438 13.894531 16.535156 14.023438 C 16.539062 14.140625 16.523438 14.269531 16.523438 14.269531 C 16.523438 14.269531 16.519531 14.347656 16.40625 14.367188 C 16.289062 14.390625 15.464844 14.421875 15.464844 14.421875 L 15.332031 14.871094 C 15.332031 14.871094 15.28125 14.976562 15.394531 14.945312 C 15.496094 14.917969 16.359375 14.757812 16.472656 14.78125 C 16.589844 14.808594 16.726562 14.96875 16.6875 15.117188 C 16.640625 15.296875 15.78125 15.847656 15.257812 15.808594 C 15.257812 15.808594 14.980469 15.828125 14.746094 15.453125 C 14.53125 15.101562 14.828125 14.429688 14.828125 14.429688 C 14.828125 14.429688 14.691406 14.117188 14.792969 14.011719 C 14.792969 14.011719 14.851562 13.957031 15.023438 13.945312 L 15.234375 13.507812 C 15.234375 13.507812 14.992188 13.527344 14.851562 13.347656 C 14.71875 13.179688 14.707031 13.105469 14.808594 13.058594 C 14.917969 13.003906 15.917969 12.820312 16.605469 12.84375 C 16.605469 12.84375 16.847656 12.820312 17.054688 13.238281 C 17.050781 13.234375 17.152344 13.402344 16.980469 13.445312 M 14.390625 15.121094 C 14.304688 15.328125 14.070312 15.550781 13.78125 15.414062 C 13.496094 15.273438 13.039062 14.34375 13.039062 14.34375 C 13.039062 14.34375 12.867188 13.996094 12.835938 14.003906 C 12.835938 14.003906 12.796875 13.9375 12.773438 14.316406 C 12.75 14.695312 12.777344 15.433594 12.628906 15.546875 C 12.484375 15.664062 12.3125 15.617188 12.222656 15.480469 C 12.140625 15.347656 12.105469 15.03125 12.152344 14.472656 C 12.203125 13.910156 12.332031 13.316406 12.5 13.128906 C 12.664062 12.945312 12.800781 13.078125 12.851562 13.128906 C 12.851562 13.128906 13.074219 13.328125 13.4375 13.921875 L 13.503906 14.027344 C 13.503906 14.027344 13.835938 14.585938 13.871094 14.585938 C 13.871094 14.585938 13.898438 14.613281 13.921875 14.59375 C 13.957031 14.582031 13.941406 14.402344 13.941406 14.402344 C 13.941406 14.402344 13.875 13.796875 13.570312 12.765625 C 13.570312 12.765625 13.523438 12.636719 13.554688 12.515625 C 13.585938 12.394531 13.707031 12.453125 13.707031 12.453125 C 13.707031 12.453125 14.179688 12.6875 14.40625 13.453125 C 14.632812 14.222656 14.480469 14.914062 14.390625 15.121094 M 19.453125 14.664062 C 19.242188 15.039062 18.636719 15.820312 17.832031 15.636719 C 17.566406 16.277344 17.34375 16.929688 17.21875 17.902344 C 17.21875 17.902344 17.1875 18.09375 17.03125 18.027344 C 16.875 17.972656 16.617188 17.714844 16.566406 17.355469 C 16.511719 16.882812 16.722656 16.089844 17.148438 15.175781 C 17.023438 14.972656 16.9375 14.683594 17.011719 14.269531 C 17.011719 14.269531 17.121094 13.5 17.890625 12.808594 C 17.890625 12.808594 17.980469 12.730469 18.035156 12.753906 C 18.09375 12.777344 18.066406 13.027344 18.019531 13.148438 C 17.972656 13.269531 17.628906 13.863281 17.628906 13.863281 C 17.628906 13.863281 17.414062 14.265625 17.476562 14.582031 C 17.878906 13.960938 18.796875 12.707031 19.367188 13.101562 C 19.558594 13.238281 19.648438 13.539062 19.648438 13.859375 C 19.648438 14.140625 19.582031 14.4375 19.453125 14.664062 M 19.289062 13.679688 C 19.289062 13.679688 19.257812 13.433594 19.015625 13.703125 C 18.808594 13.933594 18.433594 14.363281 18.132812 14.949219 C 18.449219 14.914062 18.753906 14.742188 18.847656 14.652344 C 18.996094 14.519531 19.34375 14.160156 19.289062 13.679688 M 23.878906 13.621094 L 22.40625 13.621094 C 22.378906 13.121094 22.316406 12.636719 22.222656 12.132812 C 22.214844 12.082031 22.167969 12.042969 22.113281 12.042969 L 21.777344 12.042969 C 21.746094 12.042969 21.71875 12.054688 21.699219 12.078125 C 21.679688 12.101562 21.671875 12.132812 21.679688 12.160156 C 21.773438 12.648438 21.835938 13.125 21.867188 13.621094 L 20.449219 13.621094 C 20.382812 13.621094 20.328125 13.675781 20.328125 13.742188 L 20.328125 14.046875 C 20.328125 14.113281 20.382812 14.167969 20.449219 14.167969 L 21.886719 14.167969 C 21.886719 14.242188 21.890625 14.3125 21.890625 14.375 C 21.890625 14.816406 21.871094 15.179688 21.824219 15.589844 C 21.820312 15.621094 21.832031 15.652344 21.851562 15.675781 C 21.875 15.699219 21.902344 15.714844 21.933594 15.714844 L 22.25 15.714844 C 22.3125 15.714844 22.363281 15.667969 22.367188 15.605469 C 22.410156 15.195312 22.429688 14.824219 22.429688 14.375 C 22.429688 14.3125 22.429688 14.246094 22.429688 14.167969 L 23.878906 14.167969 C 23.945312 14.167969 24 14.113281 24 14.050781 L 24 13.742188 C 24 13.675781 23.945312 13.621094 23.878906 13.621094 M 4.191406 9.519531 C 4.171875 9.550781 4.167969 9.589844 4.179688 9.625 C 4.191406 9.660156 4.21875 9.6875 4.253906 9.699219 L 4.519531 9.789062 C 4.535156 9.792969 4.550781 9.796875 4.566406 9.796875 C 4.613281 9.796875 4.660156 9.773438 4.6875 9.730469 C 5.550781 8.460938 6.722656 7.402344 8.070312 6.675781 C 9.464844 5.921875 11.042969 5.519531 12.636719 5.519531 C 14.5625 5.519531 16.417969 6.089844 18.007812 7.164062 C 19.554688 8.210938 20.761719 9.671875 21.488281 11.390625 C 21.507812 11.441406 21.558594 11.472656 21.613281 11.472656 L 21.929688 11.472656 C 21.964844 11.472656 22 11.457031 22.019531 11.425781 C 22.042969 11.394531 22.046875 11.355469 22.03125 11.320312 C 21.28125 9.476562 20.011719 7.902344 18.363281 6.769531 C 16.675781 5.613281 14.691406 5 12.636719 5 C 9.234375 5 6.078125 6.691406 4.191406 9.519531 "></path></g></svg>